<svg xmlns="http://www.w3.org/2000/svg" xmlns:xlink="http://www.w3.org/1999/xlink" width="500" zoomAndPan="magnify" viewBox="0 0 375 165.000002" height="220" preserveAspectRatio="xMidYMid meet" version="1.0"><defs><g/></defs><g fill="#021127" fill-opacity="1"><g transform="translate(1.129516, 157.321653)"><g><path d="M 72.375 -54.6875 L 79.546875 -46.953125 L 78.859375 -9.109375 L 68.921875 -1.375 L 2.765625 0.28125 L 3.734375 -109.9375 L 66.5625 -106.765625 L 74.578125 -96.53125 L 76.234375 -59.53125 Z M 49.71875 -65.328125 L 48.890625 -85.765625 L 30.25 -88.671875 L 30.65625 -68.09375 Z M 52.75 -44.75 L 30.9375 -48.34375 L 30.796875 -22.234375 L 51.796875 -25.546875 Z M 52.75 -44.75 "/></g></g></g><g fill="#021127" fill-opacity="1"><g transform="translate(81.338068, 147.857473)"><g><path d="M 2.765625 -84.046875 L 25.890625 -84.796875 L 23.015625 -2.125 L 2.125 0.109375 Z M 2.765625 -84.046875 "/></g></g></g><g fill="#021127" fill-opacity="1"><g transform="translate(107.263694, 154.029789)"><g><path d="M 66.609375 -50.34375 L 73.21875 -43.21875 L 72.59375 -8.390625 L 63.4375 -1.265625 L 2.546875 0.25 L 3.4375 -101.1875 L 61.28125 -98.265625 L 68.640625 -88.859375 L 70.171875 -54.796875 Z M 45.765625 -60.125 L 45 -78.9375 L 27.84375 -81.609375 L 28.21875 -62.671875 Z M 48.5625 -41.1875 L 28.46875 -44.5 L 28.34375 -20.46875 L 47.671875 -23.515625 Z M 48.5625 -41.1875 "/></g></g></g><g fill="#021127" fill-opacity="1"><g transform="translate(186.889744, 151.096361)"><g><path d="M 63.5625 -23.78125 L 66.453125 0.125 L 2.515625 0.125 L 3.390625 -100.9375 L 30.328125 -99.296875 L 28.953125 -24.171875 Z M 63.5625 -23.78125 "/></g></g></g><g fill="#021127" fill-opacity="1"><g transform="translate(257.896636, 144.828586)"><g><path d="M 2.734375 -82.828125 L 25.5 -83.5625 L 22.671875 -2.09375 L 2.09375 0.109375 Z M 2.734375 -82.828125 "/></g></g></g><g fill="#021127" fill-opacity="1"><g transform="translate(287.534084, 153.479741)"><g><path d="M 71.84375 -107.03125 L 78.140625 -100.21875 L 77.203125 -9.765625 L 72.25 -0.265625 L 12.171875 0.140625 L 3.34375 -5.078125 L 2.671875 -99.953125 L 6.953125 -106.640625 Z M 30.765625 -84.5625 L 31.578125 -22.75 L 49.640625 -21.546875 L 49.90625 -82.953125 Z M 30.765625 -84.5625 "/></g></g></g></svg>