<?xml version="1.0" standalone="no"?><svg xmlns:xlink="http://www.w3.org/1999/xlink" xmlns="http://www.w3.org/2000/svg" viewBox="0 0 1000 692.3035809188426" preserveAspectRatio="xMaxYMax slice"><g transform="scale(1.0084538687819995)"><rect x="0" y="0" width="1067.8888888888887" height="686.5" fill="#ffffff"/><rect x="0" y="0" width="76.28" height="76.28" fill="#293648"/><polygon points="0,0 76.28,76.28 0,76.28" fill="#555f6e"/><rect x="76.28" y="0" width="76.28" height="76.28" fill="#f7cc3e"/><polygon points="152.56,0 152.56,76.28 76.28,76.28" fill="#aceae6"/><rect x="152.56" y="0" width="76.28" height="76.28" fill="#d8f5f3"/><polygon points="152.56,0 228.84,76.28 152.56,76.28" fill="#f8cf4a"/><rect x="228.83" y="0" width="76.28" height="76.28" fill="#fceebe"/><polygon points="305.11,0 305.11,76.28 228.83,76.28" fill="#d1f4f1"/><rect x="305.11" y="0" width="76.28" height="76.28" fill="#80dfd9"/><polygon points="381.39,0 381.39,76.28 305.11,76.28" fill="#57d5cc"/><rect x="381.39" y="0" width="76.28" height="76.28" fill="#69727f"/><path d="M 381.39 76.28 A 76.28 76.28 0 0 1  457.66999999999996 0 L 457.66999999999996 76.28L381.39 76.28" fill="#57d5cc"/><rect x="457.67" y="0" width="76.28" height="76.28" fill="#fae089"/><path d="M 457.67 0 A 76.28 76.28 0 0 1  533.95 76.28 L 457.67 0 A 76.28 76.28 0 0 0 533.95 76.28" fill="#4dd2c9"/><rect x="533.94" y="0" width="76.28" height="76.28" fill="#14c4b8"/><rect x="533.94" y="0" width="76.28" height="76.28" fill="#ebfaf9"/><rect x="610.22" y="0" width="76.28" height="76.28" fill="#fcebb2"/><path d="M 610.22 0 A 76.28 76.28 0 0 1  686.5 76.28 L 610.22 0 A 76.28 76.28 0 0 0 686.5 76.28" fill="#fae18d"/><rect x="686.5" y="0" width="76.28" height="76.28" fill="#4ad2c8"/><rect x="686.5" y="0" width="76.28" height="76.28" fill="#f7fdfd"/><rect x="762.78" y="0" width="76.28" height="76.28" fill="#fbe499"/><path d="M 762.78 76.28 A 76.28 76.28 0 0 1  839.06 0 L 839.06 76.28L762.78 76.28" fill="#fcedba"/><rect x="839.06" y="0" width="76.28" height="76.28" fill="#f7cc3e"/><polygon points="839.06,0 915.3399999999999,76.28 839.06,76.28" fill="#b8bcc2"/><rect x="915.33" y="0" width="76.28" height="76.28" fill="#d6f5f3"/><rect x="915.33" y="0" width="76.28" height="76.28" fill="#b8bcc2"/><rect x="991.61" y="0" width="76.28" height="76.28" fill="#fadd7d"/><path d="M 991.61 0 A 76.28 76.28 0 0 1  1067.89 76.28 L 991.61 0 A 76.28 76.28 0 0 0 1067.89 76.28" fill="#bbeeea"/><rect x="0" y="76.28" width="76.28" height="76.28" fill="#fdf2ce"/><rect x="0" y="76.28" width="76.28" height="76.28" fill="#f9da72"/><rect x="76.28" y="76.28" width="76.28" height="76.28" fill="#f9da74"/><path d="M 76.28 152.56 A 76.28 76.28 0 0 1  152.56 76.28 L 152.56 152.56L76.28 152.56" fill="#818994"/><rect x="152.56" y="76.28" width="76.28" height="76.28" fill="#b4ece8"/><rect x="152.56" y="76.28" width="76.28" height="76.28" fill="#57616f"/><rect x="228.83" y="76.28" width="76.28" height="76.28" fill="#fdf4d6"/><path d="M 228.83 152.56 A 76.28 76.28 0 0 1  305.11 76.28 L 305.11 152.56L228.83 152.56" fill="#9da3ab"/><rect x="305.11" y="76.28" width="76.28" height="76.28" fill="#f8cf4a"/><rect x="305.11" y="76.28" width="76.28" height="76.28" fill="#5fd7cf"/><rect x="381.39" y="76.28" width="76.28" height="76.28" fill="#2acabf"/><polygon points="381.39,76.28 457.66999999999996,152.56 381.39,152.56" fill="#fffcf4"/><rect x="457.67" y="76.28" width="76.28" height="76.28" fill="#0a182e"/><path d="M 457.67 152.56 A 76.28 76.28 0 0 0 533.95 76.28 L 457.67 76.28L457.67 152.56" fill="#dff7f5"/><rect x="533.94" y="76.28" width="76.28" height="76.28" fill="#fdf0c5"/><rect x="533.94" y="76.28" width="76.28" height="76.28" fill="#e1f7f6"/><rect x="610.22" y="76.28" width="76.28" height="76.28" fill="#0fc3b7"/><polygon points="610.22,76.28 686.5,76.28 610.22,152.56" fill="#f2fcfb"/><rect x="686.5" y="76.28" width="76.28" height="76.28" fill="#a5e8e4"/><polygon points="762.78,76.28 762.78,152.56 686.5,152.56" fill="#7aded7"/><rect x="762.78" y="76.28" width="76.28" height="76.28" fill="#8d949d"/><polygon points="762.78,76.28 839.06,76.28 839.06,152.56" fill="#fdf3d1"/><rect x="839.06" y="76.28" width="76.28" height="76.28" fill="#fffdf6"/><rect x="839.06" y="76.28" width="76.28" height="76.28" fill="#2e3a4d"/><rect x="915.33" y="76.28" width="76.28" height="76.28" fill="#ffffff"/><path d="M 915.33 76.28 A 76.28 76.28 0 0 0 991.61 152.56 L 991.61 76.28L915.33 76.28" fill="#969ca6"/><rect x="991.61" y="76.28" width="76.28" height="76.28" fill="#abb0b7"/><rect x="991.61" y="76.28" width="76.28" height="76.28" fill="#9da3ab"/><rect x="0" y="152.56" width="76.28" height="76.28" fill="#253245"/><rect x="0" y="152.56" width="76.28" height="76.28" fill="#fdf1c9"/><rect x="76.28" y="152.56" width="76.28" height="76.28" fill="#323e50"/><polygon points="76.28,152.56 152.56,152.56 152.56,228.84" fill="#d4f4f2"/><rect x="152.56" y="152.56" width="76.28" height="76.28" fill="#aceae6"/><rect x="152.56" y="152.56" width="76.28" height="76.28" fill="#7f8792"/><rect x="228.83" y="152.56" width="76.28" height="76.28" fill="#fef7e2"/><rect x="228.83" y="152.56" width="76.28" height="76.28" fill="#c3f0ed"/><rect x="305.11" y="152.56" width="76.28" height="76.28" fill="#fdefc1"/><rect x="305.11" y="152.56" width="76.28" height="76.28" fill="#3d495a"/><rect x="381.39" y="152.56" width="76.28" height="76.28" fill="#fdf0c5"/><polygon points="381.39,152.56 457.66999999999996,152.56 381.39,228.84" fill="#dff7f5"/><rect x="457.67" y="152.56" width="76.28" height="76.28" fill="#fadd80"/><path d="M 457.67 228.84 A 76.28 76.28 0 0 1  533.95 152.56 L 457.67 228.84 A 76.28 76.28 0 0 0 533.95 152.56" fill="#fae08b"/><rect x="533.94" y="152.56" width="76.28" height="76.28" fill="#3b4657"/><rect x="533.94" y="152.56" width="76.28" height="76.28" fill="#f9d560"/><rect x="610.22" y="152.56" width="76.28" height="76.28" fill="#07162c"/><path d="M 610.22 228.84 A 76.28 76.28 0 0 1  686.5 152.56 L 610.22 228.84 A 76.28 76.28 0 0 0 686.5 152.56" fill="#98e5e0"/><rect x="686.5" y="152.56" width="76.28" height="76.28" fill="#fafefd"/><rect x="686.5" y="152.56" width="76.28" height="76.28" fill="#fdf5d8"/><rect x="762.78" y="152.56" width="76.28" height="76.28" fill="#f9d663"/><polygon points="762.78,152.56 839.06,228.84 762.78,228.84" fill="#56606f"/><rect x="839.06" y="152.56" width="76.28" height="76.28" fill="#6f7884"/><polygon points="839.06,152.56 915.3399999999999,152.56 839.06,228.84" fill="#c2c5cb"/><rect x="915.33" y="152.56" width="76.28" height="76.28" fill="#25c8bd"/><path d="M 915.33 152.56 A 76.28 76.28 0 0 1 991.61 228.84 L 915.33 228.84L915.33 152.56" fill="#a2a8b0"/><rect x="991.61" y="152.56" width="76.28" height="76.28" fill="#4d5867"/><path d="M 991.61 228.84 A 76.28 76.28 0 0 1  1067.89 152.56 L 991.61 228.84 A 76.28 76.28 0 0 0 1067.89 152.56" fill="#fdf1cb"/><rect x="0" y="228.83" width="76.28" height="76.28" fill="#3dcec4"/><rect x="0" y="228.83" width="76.28" height="76.28" fill="#818893"/><rect x="76.28" y="228.83" width="76.28" height="76.28" fill="#3acdc3"/><polygon points="76.28,228.83 152.56,305.11 76.28,305.11" fill="#d1d3d7"/><rect x="152.56" y="228.83" width="76.28" height="76.28" fill="#fceebf"/><path d="M 152.56 228.83 A 76.28 76.28 0 0 1 228.84 305.11 L 152.56 305.11L152.56 228.83" fill="#35ccc2"/><rect x="228.83" y="228.83" width="76.28" height="76.28" fill="#6ddad3"/><polygon points="228.83,228.83 305.11,228.83 228.83,305.11" fill="#cff3f1"/><rect x="305.11" y="228.83" width="76.28" height="76.28" fill="#b6ede9"/><rect x="305.11" y="228.83" width="76.28" height="76.28" fill="#fbfbfc"/><rect x="381.39" y="228.83" width="76.28" height="76.28" fill="#fef9ea"/><path d="M 381.39 228.83 A 76.28 76.28 0 0 1  457.66999999999996 305.11 L 381.39 228.83 A 76.28 76.28 0 0 0 457.66999999999996 305.11" fill="#fef6de"/><rect x="457.67" y="228.83" width="76.28" height="76.28" fill="#fdf3d0"/><rect x="457.67" y="228.83" width="76.28" height="76.28" fill="#23c8bd"/><rect x="533.94" y="228.83" width="76.28" height="76.28" fill="#323e50"/><polygon points="610.22,228.83 610.22,305.11 533.94,305.11" fill="#f9d86a"/><rect x="610.22" y="228.83" width="76.28" height="76.28" fill="#d6f5f3"/><path d="M 610.22 228.83 A 76.28 76.28 0 0 0 686.5 305.11 L 686.5 228.83L610.22 228.83" fill="#44d0c7"/><rect x="686.5" y="228.83" width="76.28" height="76.28" fill="#fdf4d7"/><path d="M 686.5 305.11 A 76.28 76.28 0 0 1  762.78 228.83 L 686.5 305.11 A 76.28 76.28 0 0 0 762.78 228.83" fill="#495464"/><rect x="762.78" y="228.83" width="76.28" height="76.28" fill="#f8d04b"/><rect x="762.78" y="228.83" width="76.28" height="76.28" fill="#bbeeea"/><rect x="839.06" y="228.83" width="76.28" height="76.28" fill="#84e0da"/><path d="M 839.06 305.11 A 76.28 76.28 0 0 0 915.3399999999999 228.83 L 839.06 228.83L839.06 305.11" fill="#59d5cd"/><rect x="915.33" y="228.83" width="76.28" height="76.28" fill="#c0c4ca"/><polygon points="991.61,228.83 991.61,305.11 915.33,305.11" fill="#283548"/><rect x="991.61" y="228.83" width="76.28" height="76.28" fill="#fdf0c6"/><rect x="991.61" y="228.83" width="76.28" height="76.28" fill="#c1efec"/><rect x="0" y="305.11" width="76.28" height="76.28" fill="#313d4f"/><rect x="0" y="305.11" width="76.28" height="76.28" fill="#f9d663"/><rect x="76.28" y="305.11" width="76.28" height="76.28" fill="#fcecb5"/><polygon points="76.28,305.11 152.56,381.39 76.28,381.39" fill="#baeeea"/><rect x="152.56" y="305.11" width="76.28" height="76.28" fill="#6a727f"/><polygon points="152.56,305.11 228.84,305.11 152.56,381.39" fill="#f7cb38"/><rect x="228.83" y="305.11" width="76.28" height="76.28" fill="#7bded7"/><path d="M 228.83 305.11 A 76.28 76.28 0 0 0 305.11 381.39 L 305.11 305.11L228.83 305.11" fill="#47d1c7"/><rect x="305.11" y="305.11" width="76.28" height="76.28" fill="#f9d768"/><path d="M 305.11 305.11 A 76.28 76.28 0 0 0 381.39 381.39 L 381.39 305.11L305.11 305.11" fill="#fffefb"/><rect x="381.39" y="305.11" width="76.28" height="76.28" fill="#ebfaf9"/><path d="M 381.39 381.39 A 76.28 76.28 0 0 0 457.66999999999996 305.11 L 381.39 305.11L381.39 381.39" fill="#434e5e"/><rect x="457.67" y="305.11" width="76.28" height="76.28" fill="#94e4df"/><path d="M 457.67 381.39 A 76.28 76.28 0 0 1  533.95 305.11 L 457.67 381.39 A 76.28 76.28 0 0 0 533.95 305.11" fill="#1f2c3f"/><rect x="533.94" y="305.11" width="76.28" height="76.28" fill="#20c7bc"/><path d="M 533.94 381.39 A 76.28 76.28 0 0 0 610.22 305.11 L 533.94 305.11L533.94 381.39" fill="#f8f8f9"/><rect x="610.22" y="305.11" width="76.28" height="76.28" fill="#58d5cd"/><path d="M 610.22 381.39 A 76.28 76.28 0 0 1  686.5 305.11 L 610.22 381.39 A 76.28 76.28 0 0 0 686.5 305.11" fill="#f9d665"/><rect x="686.5" y="305.11" width="76.28" height="76.28" fill="#82e0d9"/><rect x="686.5" y="305.11" width="76.28" height="76.28" fill="#18c5b9"/><rect x="762.78" y="305.11" width="76.28" height="76.28" fill="#fffdf8"/><rect x="762.78" y="305.11" width="76.28" height="76.28" fill="#71dbd4"/><rect x="839.06" y="305.11" width="76.28" height="76.28" fill="#586270"/><rect x="839.06" y="305.11" width="76.28" height="76.28" fill="#36cdc2"/><rect x="915.33" y="305.11" width="76.28" height="76.28" fill="#5c6574"/><rect x="915.33" y="305.11" width="76.28" height="76.28" fill="#f5fdfc"/><rect x="991.61" y="305.11" width="76.28" height="76.28" fill="#05c0b3"/><rect x="991.61" y="305.11" width="76.28" height="76.28" fill="#fdf2cf"/><rect x="0" y="381.39" width="76.28" height="76.28" fill="#0d1c31"/><rect x="0" y="381.39" width="76.28" height="76.28" fill="#2bcabf"/><rect x="76.28" y="381.39" width="76.28" height="76.28" fill="#dddfe2"/><path d="M 76.28 457.66999999999996 A 76.28 76.28 0 0 1  152.56 381.39 L 76.28 457.66999999999996 A 76.28 76.28 0 0 0 152.56 381.39" fill="#f9d766"/><rect x="152.56" y="381.39" width="76.28" height="76.28" fill="#fffefa"/><polygon points="152.56,381.39 228.84,457.66999999999996 152.56,457.66999999999996" fill="#888f9a"/><rect x="228.83" y="381.39" width="76.28" height="76.28" fill="#f5fcfc"/><polygon points="305.11,381.39 305.11,457.66999999999996 228.83,457.66999999999996" fill="#414d5d"/><rect x="305.11" y="381.39" width="76.28" height="76.28" fill="#fcecb5"/><path d="M 305.11 381.39 A 76.28 76.28 0 0 1  381.39 457.66999999999996 L 305.11 381.39 A 76.28 76.28 0 0 0 381.39 457.66999999999996" fill="#37cdc3"/><rect x="381.39" y="381.39" width="76.28" height="76.28" fill="#d8f5f3"/><rect x="381.39" y="381.39" width="76.28" height="76.28" fill="#f9d663"/><rect x="457.67" y="381.39" width="76.28" height="76.28" fill="#fef6dd"/><rect x="457.67" y="381.39" width="76.28" height="76.28" fill="#d2d5d9"/><rect x="533.94" y="381.39" width="76.28" height="76.28" fill="#fffffe"/><path d="M 533.94 381.39 A 76.28 76.28 0 0 1 610.22 457.66999999999996 L 533.94 457.66999999999996L533.94 381.39" fill="#fdf4d7"/><rect x="610.22" y="381.39" width="76.28" height="76.28" fill="#7dded8"/><path d="M 610.22 381.39 A 76.28 76.28 0 0 1  686.5 457.66999999999996 L 610.22 381.39 A 76.28 76.28 0 0 0 686.5 457.66999999999996" fill="#6c7582"/><rect x="686.5" y="381.39" width="76.28" height="76.28" fill="#888f99"/><path d="M 686.5 381.39 A 76.28 76.28 0 0 1 762.78 457.66999999999996 L 686.5 457.66999999999996L686.5 381.39" fill="#18c5b9"/><rect x="762.78" y="381.39" width="76.28" height="76.28" fill="#828994"/><path d="M 762.78 457.66999999999996 A 76.28 76.28 0 0 0 839.06 381.39 L 762.78 381.39L762.78 457.66999999999996" fill="#48d1c8"/><rect x="839.06" y="381.39" width="76.28" height="76.28" fill="#364253"/><polygon points="915.3399999999999,381.39 915.3399999999999,457.66999999999996 839.06,457.66999999999996" fill="#8b919c"/><rect x="915.33" y="381.39" width="76.28" height="76.28" fill="#f8d04c"/><path d="M 915.33 381.39 A 76.28 76.28 0 0 1 991.61 457.66999999999996 L 915.33 457.66999999999996L915.33 381.39" fill="#46d0c7"/><rect x="991.61" y="381.39" width="76.28" height="76.28" fill="#fef7e2"/><rect x="991.61" y="381.39" width="76.28" height="76.28" fill="#bdeeeb"/><rect x="0" y="457.67" width="76.28" height="76.28" fill="#122035"/><polygon points="0,457.67 76.28,533.95 0,533.95" fill="#5d6775"/><rect x="76.28" y="457.67" width="76.28" height="76.28" fill="#caf2ef"/><polygon points="76.28,457.67 152.56,457.67 76.28,533.95" fill="#a1e7e3"/><rect x="152.56" y="457.67" width="76.28" height="76.28" fill="#828994"/><rect x="152.56" y="457.67" width="76.28" height="76.28" fill="#aceae6"/><rect x="228.83" y="457.67" width="76.28" height="76.28" fill="#f7cc3f"/><polygon points="305.11,457.67 305.11,533.95 228.83,533.95" fill="#fdf4d3"/><rect x="305.11" y="457.67" width="76.28" height="76.28" fill="#fefaee"/><rect x="305.11" y="457.67" width="76.28" height="76.28" fill="#c2f0ed"/><rect x="381.39" y="457.67" width="76.28" height="76.28" fill="#475262"/><rect x="381.39" y="457.67" width="76.28" height="76.28" fill="#6a7380"/><rect x="457.67" y="457.67" width="76.28" height="76.28" fill="#aeebe6"/><path d="M 457.67 457.67 A 76.28 76.28 0 0 0 533.95 533.95 L 533.95 457.67L457.67 457.67" fill="#636c7a"/><rect x="533.94" y="457.67" width="76.28" height="76.28" fill="#9ea4ad"/><rect x="533.94" y="457.67" width="76.28" height="76.28" fill="#1cc6ba"/><rect x="610.22" y="457.67" width="76.28" height="76.28" fill="#c3f0ed"/><path d="M 610.22 533.95 A 76.28 76.28 0 0 1  686.5 457.67 L 610.22 533.95 A 76.28 76.28 0 0 0 686.5 457.67" fill="#b6ede9"/><rect x="686.5" y="457.67" width="76.28" height="76.28" fill="#85e0da"/><rect x="686.5" y="457.67" width="76.28" height="76.28" fill="#fadd7f"/><rect x="762.78" y="457.67" width="76.28" height="76.28" fill="#fcedbc"/><path d="M 762.78 533.95 A 76.28 76.28 0 0 0 839.06 457.67 L 762.78 457.67L762.78 533.95" fill="#f7cc3d"/><rect x="839.06" y="457.67" width="76.28" height="76.28" fill="#959ba5"/><rect x="839.06" y="457.67" width="76.28" height="76.28" fill="#243144"/><rect x="915.33" y="457.67" width="76.28" height="76.28" fill="#fadd7e"/><polygon points="915.33,457.67 991.61,457.67 915.33,533.95" fill="#132135"/><rect x="991.61" y="457.67" width="76.28" height="76.28" fill="#fae089"/><path d="M 991.61 457.67 A 76.28 76.28 0 0 0 1067.89 533.95 L 1067.89 457.67L991.61 457.67" fill="#7a828d"/><rect x="0" y="533.94" width="76.28" height="76.28" fill="#fceaaf"/><rect x="0" y="533.94" width="76.28" height="76.28" fill="#f9d663"/><rect x="76.28" y="533.94" width="76.28" height="76.28" fill="#19263a"/><polygon points="76.28,533.94 152.56,533.94 76.28,610.22" fill="#e8e9eb"/><rect x="152.56" y="533.94" width="76.28" height="76.28" fill="#cff3f1"/><polygon points="152.56,533.94 228.84,533.94 152.56,610.22" fill="#b9eeea"/><rect x="228.83" y="533.94" width="76.28" height="76.28" fill="#3acec3"/><polygon points="228.83,533.94 305.11,610.22 228.83,610.22" fill="#fef7df"/><rect x="305.11" y="533.94" width="76.28" height="76.28" fill="#475262"/><rect x="305.11" y="533.94" width="76.28" height="76.28" fill="#475262"/><rect x="381.39" y="533.94" width="76.28" height="76.28" fill="#f8d255"/><path d="M 381.39 533.94 A 76.28 76.28 0 0 1 457.66999999999996 610.22 L 381.39 610.22L381.39 533.94" fill="#3c4859"/><rect x="457.67" y="533.94" width="76.28" height="76.28" fill="#aeebe7"/><path d="M 457.67 533.94 A 76.28 76.28 0 0 1  533.95 610.22 L 457.67 533.94 A 76.28 76.28 0 0 0 533.95 610.22" fill="#7e8691"/><rect x="533.94" y="533.94" width="76.28" height="76.28" fill="#26c9bd"/><polygon points="533.94,533.94 610.22,533.94 610.22,610.22" fill="#8f969f"/><rect x="610.22" y="533.94" width="76.28" height="76.28" fill="#52d4cb"/><rect x="610.22" y="533.94" width="76.28" height="76.28" fill="#fffffd"/><rect x="686.5" y="533.94" width="76.28" height="76.28" fill="#fdf0c6"/><rect x="686.5" y="533.94" width="76.28" height="76.28" fill="#fefaec"/><rect x="762.78" y="533.94" width="76.28" height="76.28" fill="#95e4df"/><rect x="762.78" y="533.94" width="76.28" height="76.28" fill="#fae18d"/><rect x="839.06" y="533.94" width="76.28" height="76.28" fill="#89e1db"/><path d="M 839.06 533.94 A 76.28 76.28 0 0 0 915.3399999999999 610.22 L 915.3399999999999 533.94L839.06 533.94" fill="#e9faf8"/><rect x="915.33" y="533.94" width="76.28" height="76.28" fill="#fdefc1"/><polygon points="915.33,533.94 991.61,533.94 991.61,610.22" fill="#f9d86a"/><rect x="991.61" y="533.94" width="76.28" height="76.28" fill="#c0efec"/><path d="M 991.61 533.94 A 76.28 76.28 0 0 0 1067.89 610.22 L 1067.89 533.94L991.61 533.94" fill="#d6d9dc"/><rect x="0" y="610.22" width="76.28" height="76.28" fill="#fefaed"/><polygon points="0,610.22 76.28,686.5 0,686.5" fill="#fdf2ce"/><rect x="76.28" y="610.22" width="76.28" height="76.28" fill="#fef6dd"/><polygon points="152.56,610.22 152.56,686.5 76.28,686.5" fill="#0b192e"/><rect x="152.56" y="610.22" width="76.28" height="76.28" fill="#fef8e6"/><rect x="152.56" y="610.22" width="76.28" height="76.28" fill="#69727f"/><rect x="228.83" y="610.22" width="76.28" height="76.28" fill="#b5b9c0"/><polygon points="228.83,610.22 305.11,686.5 228.83,686.5" fill="#42d0c6"/><rect x="305.11" y="610.22" width="76.28" height="76.28" fill="#b0b5bb"/><path d="M 305.11 686.5 A 76.28 76.28 0 0 0 381.39 610.22 L 305.11 610.22L305.11 686.5" fill="#81dfd9"/><rect x="381.39" y="610.22" width="76.28" height="76.28" fill="#4d5867"/><path d="M 381.39 686.5 A 76.28 76.28 0 0 0 457.66999999999996 610.22 L 381.39 610.22L381.39 686.5" fill="#717986"/><rect x="457.67" y="610.22" width="76.28" height="76.28" fill="#f9d45d"/><rect x="457.67" y="610.22" width="76.28" height="76.28" fill="#fbe291"/><rect x="533.94" y="610.22" width="76.28" height="76.28" fill="#98e5e0"/><path d="M 533.94 686.5 A 76.28 76.28 0 0 1  610.22 610.22 L 533.94 686.5 A 76.28 76.28 0 0 0 610.22 610.22" fill="#f8d253"/><rect x="610.22" y="610.22" width="76.28" height="76.28" fill="#a6e9e4"/><path d="M 610.22 610.22 A 76.28 76.28 0 0 0 686.5 686.5 L 686.5 610.22L610.22 610.22" fill="#c0efec"/><rect x="686.5" y="610.22" width="76.28" height="76.28" fill="#fadb75"/><polygon points="686.5,610.22 762.78,610.22 686.5,686.5" fill="#f7cc3e"/><rect x="762.78" y="610.22" width="76.28" height="76.28" fill="#9de6e1"/><polygon points="762.78,610.22 839.06,686.5 762.78,686.5" fill="#cdd0d4"/><rect x="839.06" y="610.22" width="76.28" height="76.28" fill="#b5ede9"/><rect x="839.06" y="610.22" width="76.28" height="76.28" fill="#a6e9e4"/><rect x="915.33" y="610.22" width="76.28" height="76.28" fill="#d8f5f3"/><path d="M 915.33 686.5 A 76.28 76.28 0 0 0 991.61 610.22 L 915.33 610.22L915.33 686.5" fill="#fadc79"/><rect x="991.61" y="610.22" width="76.28" height="76.28" fill="#4c5666"/><path d="M 991.61 610.22 A 76.28 76.28 0 0 0 1067.89 686.5 L 1067.89 610.22L991.61 610.22" fill="#5ad6cd"/></g></svg>